<svg width="211" height="175" viewBox="0 0 211 175" fill="none" xmlns="http://www.w3.org/2000/svg">
<path fill-rule="evenodd" clip-rule="evenodd" d="M74.3883 0H91.9991C92.0221 0.504755 92.0541 0.973044 92.0844 1.41573L92.0844 1.41594V1.41603V1.4161V1.41617V1.41622V1.41627C92.1304 2.08746 92.1723 2.69981 92.1723 3.29121C92.1723 6.06593 92.1687 8.84064 92.1652 11.6163V11.6189V11.6216V11.6243V11.627L92.1651 11.6473V11.6485C92.1543 20.0097 92.1435 28.3789 92.2301 36.7807C92.2301 39.4368 92.461 42.2083 93.3271 44.6911C95.4635 51.1003 101.642 54.1606 109.206 53.0635C115.73 52.0819 120.35 47.1162 120.523 40.1296C120.696 31.2099 120.674 22.2576 120.653 13.2972V13.2966C120.646 10.3085 120.638 7.31954 120.638 4.33054V0.346443H138.249C138.307 1.27029 138.365 2.30962 138.365 3.29121C138.365 7.18554 138.371 11.0799 138.378 14.9763V14.9827V14.9891V14.9955V15.0019V15.0083C138.39 22.8289 138.403 30.6581 138.365 38.5129C138.307 56.2392 126.99 67.9606 109.264 68.7689C101.411 69.1731 93.9046 68.0183 87.1489 63.8032C80.451 59.5882 76.4669 53.5254 74.9657 45.7305C74.8502 45.0953 74.3883 42.2083 74.3883 38.7439V0ZM62.1185 83.2838L74.6924 70.7099C82.967 78.5084 94.1185 83.2879 106.386 83.2879C118.381 83.2879 129.309 78.7186 137.524 71.2257L150.103 83.8053C138.663 94.5106 123.29 101.064 106.386 101.064C89.2096 101.064 73.6135 94.2974 62.1185 83.2838ZM10.3867 137.694H0.912292V158.538C0.912292 160.401 1.1608 161.955 1.22293 162.296C2.03058 166.49 4.17396 169.752 7.77733 172.019C11.4118 174.287 15.45 174.908 19.6747 174.691C29.2112 174.256 35.2996 167.95 35.3307 158.413C35.3514 154.188 35.3445 149.976 35.3376 145.768V145.765V145.761V145.758V145.754C35.3341 143.657 35.3307 141.561 35.3307 139.465C35.3307 138.937 35.2996 138.377 35.2686 137.88H25.7942V140.024C25.7942 141.632 25.7981 143.24 25.802 144.847C25.8136 149.668 25.8252 154.484 25.7321 159.283C25.6389 163.042 23.1538 165.713 19.6436 166.241C15.5743 166.832 12.2505 165.185 11.1011 161.737C10.6352 160.401 10.5109 158.91 10.5109 157.481C10.4643 152.961 10.4702 148.458 10.476 143.96C10.4779 142.461 10.4799 140.963 10.4799 139.465C10.4799 139.146 10.4573 138.817 10.4326 138.456C10.4163 138.218 10.399 137.966 10.3867 137.694ZM111.033 173.604V137.849H119.606V141.329C127.434 135.147 135.883 135.52 141.351 142.291C142.904 140.117 144.861 138.502 147.439 137.849C153.279 136.358 158.87 136.514 163.499 141.08C166.108 143.658 167.444 146.982 167.537 150.585C167.65 156.139 167.632 161.708 167.613 167.306V167.307V167.307V167.307V167.309V167.311V167.313C167.606 169.416 167.599 171.523 167.599 173.635H158.156V171.988V154.748C158.156 154.615 158.157 154.482 158.157 154.349C158.161 153.55 158.165 152.751 158.032 151.952C157.286 147.883 154.584 145.708 150.639 145.926C146.756 146.174 144.208 148.722 144.146 152.822C144.146 157.574 144.129 166.301 144.12 170.784L144.12 170.803L144.12 170.831V170.836L144.12 170.934C144.117 172.404 144.115 173.387 144.115 173.572H134.548V171.988V154.748C134.548 154.668 134.548 154.589 134.548 154.51L134.549 154.349C134.553 153.55 134.556 152.751 134.423 151.952C133.771 147.914 131.037 145.677 127.123 145.926C123.178 146.174 120.631 148.753 120.569 152.946C120.569 157.511 120.552 166.068 120.543 170.606V170.609V170.61C120.54 172.246 120.538 173.358 120.538 173.572C117.338 173.604 114.201 173.604 111.033 173.604ZM79.9694 159.128H106.777C106.794 158.969 106.81 158.815 106.826 158.666C106.9 157.974 106.964 157.386 106.964 156.798C107.647 138.999 91.9288 133.19 80.249 138.471C68.2584 143.876 67.6682 160.215 74.1605 168.323C81.5226 177.486 97.2718 176.399 103.826 168.664C104.363 168.042 104.841 167.345 105.341 166.614L105.341 166.614C105.564 166.288 105.792 165.956 106.032 165.62C103.178 164.255 100.54 162.983 97.9034 161.711L97.8931 161.706C94.6003 165.651 90.531 167.204 85.654 165.713C82.5166 164.75 80.8081 162.39 79.9694 159.128ZM88.4187 145.118C92.9229 145.025 96.3709 147.572 96.8369 151.486H80.4975C80.6839 148.162 84.3804 145.211 88.4187 145.118ZM189.095 174.722C182.478 174.504 176.079 171.274 172.88 163.539C169.773 156.022 170.705 148.784 176.235 142.571C183.224 134.743 197.544 134.65 205.031 142.26C212.486 149.84 212.02 163.104 204.037 170.062C200.216 173.417 195.649 174.784 189.095 174.722ZM200.744 155.711C200.744 151.176 198.6 147.541 194.904 146.143C188.878 143.907 180.987 146.33 180.894 155.711C180.832 160.712 183.566 164.502 187.759 165.651C194.904 167.577 200.713 163.135 200.744 155.711ZM41.9225 163.916C40.7152 164.48 39.4991 165.049 38.2507 165.631C38.9031 167.898 40.2077 169.669 41.9784 171.129C47.5698 175.726 57.8518 176.006 63.6918 171.75C69.2832 167.681 69.8113 159.698 64.779 154.945C62.5114 152.832 59.7156 151.776 56.8267 150.938C56.56 150.859 56.2912 150.782 56.0213 150.704C54.468 150.256 52.8772 149.798 51.4217 149.136C50.7383 148.825 49.9883 148.097 50.0859 147.024C50.1835 145.95 51.111 145.377 51.8255 145.191C54.3829 144.57 56.3808 145.191 58.2935 147.116C59.2947 146.667 60.4061 146.202 61.5608 145.719C63.2005 145.033 64.9273 144.31 66.5496 143.544C66.1219 143.054 65.7362 142.571 65.3655 142.106C64.6324 141.188 63.9579 140.342 63.1326 139.662C58.0071 135.468 48.8434 135.623 43.749 139.848C38.4682 144.228 38.8099 152.273 44.6809 155.815C46.4505 156.885 48.4246 157.559 50.4045 158.236C51.4135 158.581 52.424 158.926 53.4097 159.325C53.7251 159.46 54.0496 159.588 54.3756 159.716C55.3985 160.12 56.4372 160.529 57.2616 161.189C59.0944 162.617 58.2383 165.255 56.485 165.848C54.7318 166.441 53.5651 166.407 52.1051 166.283C49.3715 166.034 47.5698 164.264 46.2341 161.903C44.7826 162.578 43.3587 163.244 41.9225 163.916Z" fill="white"/>
</svg>
